<svg width="20" height="20" viewBox="0 0 20 20" fill="none" xmlns="http://www.w3.org/2000/svg">
<path d="M12.6265 4.36458L15.6355 7.3735M13.8473 3.12673C14.046 2.92804 14.2819 2.77043 14.5415 2.6629C14.8011 2.55537 15.0793 2.50003 15.3603 2.50003C15.6413 2.50003 15.9195 2.55537 16.1791 2.6629C16.4387 2.77043 16.6746 2.92804 16.8733 3.12673C17.072 3.32541 17.2296 3.56129 17.3371 3.82089C17.4447 4.08049 17.5 4.35872 17.5 4.63971C17.5 4.92069 17.4447 5.19893 17.3371 5.45852C17.2296 5.71812 17.072 5.954 16.8733 6.15269L6.66069 16.3653L2.5 17.5L3.63473 13.3393L13.8473 3.12673Z" stroke="#313131" stroke-width="1.5" stroke-linecap="round" stroke-linejoin="round"/>
</svg>
