<svg width="15" height="16" viewBox="0 0 15 16" fill="none" xmlns="http://www.w3.org/2000/svg">
<path d="M13.5 6.66667C13.5 11.3333 7.5 15.3333 7.5 15.3333C7.5 15.3333 1.5 11.3333 1.5 6.66667C1.5 5.07537 2.13214 3.54925 3.25736 2.42403C4.38258 1.29881 5.9087 0.666668 7.5 0.666668C9.0913 0.666668 10.6174 1.29881 11.7426 2.42403C12.8679 3.54925 13.5 5.07537 13.5 6.66667Z" stroke="#87898F" stroke-width="1.5" stroke-linecap="round" stroke-linejoin="round"/>
<path d="M7.5 8.66667C8.60457 8.66667 9.5 7.77124 9.5 6.66667C9.5 5.5621 8.60457 4.66667 7.5 4.66667C6.39543 4.66667 5.5 5.5621 5.5 6.66667C5.5 7.77124 6.39543 8.66667 7.5 8.66667Z" stroke="#87898F" stroke-width="1.5" stroke-linecap="round" stroke-linejoin="round"/>
</svg>
